<svg fill="white" id="bold" enable-background="new 0 0 24 24" height="512" viewBox="0 0 24 24" width="512" xmlns="http://www.w3.org/2000/svg"><g><circle cx="9" cy="9" r="2"/></g><path d="m23 19h-2v-13c0-1.654-1.346-3-3-3h-13v-2c0-.552-.447-1-1-1s-1 .448-1 1v2h-2c-.553 0-1 .448-1 1s.447 1 1 1h2v13c0 1.654 1.346 3 3 3h13v2c0 .552.447 1 1 1s1-.448 1-1v-2h2c.553 0 1-.448 1-1s-.447-1-1-1zm-5-14c.552 0 1 .449 1 1v6.94l-2.26-2.26c-.66-.661-1.82-.661-2.48 0l-4.76 4.76-1.26-1.26c-.66-.661-1.82-.661-2.48 0l-.76.759v-9.939z"/></svg>